<svg xmlns="http://www.w3.org/2000/svg" viewBox="0 0 2059.8 681.55"><defs><style>.cls-1,.cls-2{fill:#fff;}.cls-2,.cls-3{fill-rule:evenodd;}.cls-3,.cls-4{fill:#dc5326;}</style></defs><title>Asset 3</title><g id="Layer_2" data-name="Layer 2"><g id="Layer_1-2" data-name="Layer 1"><path class="cls-1" d="M1373,399q0,10.46-1,26.65a86.19,86.19,0,0,1-8.88,31.88q-7.33,15.15-23.53,26.14-16.71,11.47-45.46,11.48-23,0-38.67-11.48-16.73-11-16.72-36.59,0-22,12-35,11-13,29.26-19.33a158.63,158.63,0,0,1,40.77-8.88q21.43-1.06,42.86-1.05H1373Zm3.13,118.11h32.4a401.19,401.19,0,0,1-2.61-55.92V343.55q1-100.33-93.55-99.29a195.45,195.45,0,0,0-78.39,18.3v31.87q37.1-22.47,78.39-21.95,62.17,0,60.63,68.46v13.59h-6.27q-26.16,0-54.36,1.57a212.76,212.76,0,0,0-53.3,11.5,86.48,86.48,0,0,0-40.25,27.7q-16.2,19.32-16.2,52.77-1,20.39,15.68,46.53,9.4,12,27.17,19.86,17.25,8.35,45,8.88A108.83,108.83,0,0,0,1340,510.27a79.74,79.74,0,0,0,35-36.06h1ZM1019.35,365a102,102,0,0,1,21.42-63.24q20.91-28.23,57-29.27,36.57,1,52.78,28.75,15.15,27.16,15.15,63.76Zm162.54,110.27q-12.54,7.32-34,13.05a134.51,134.51,0,0,1-40.77,6.8q-43.38-.51-65.32-30.31-22.47-28.21-22.47-71.6h182.39V376.49q0-55.41-24.55-93-25.62-38.16-81.54-39.2-51.21.53-81,38.67-30.84,38.69-31.36,100.88-.52,61.13,27.7,99.28,28.21,39.21,93.54,40.25a227.23,227.23,0,0,0,77.36-14.63ZM870.61,517.07h32.92V385.37a202.2,202.2,0,0,1,3.66-37.63,133.5,133.5,0,0,1,10.45-34q7.85-16.18,20.39-25.6,12.54-8.88,31.87-9.41a87.64,87.64,0,0,1,24,3.13V247.39a108.06,108.06,0,0,0-23-3.13q-25.08.53-41.81,17.25a114.2,114.2,0,0,0-26.65,40.24h-1V250.53H868.52q2.09,22.47,2.09,59.58ZM817.5,193l2.09-33.44q-15.15-7.84-40.24-11Q753.74,146,736,146q-85.71,1.05-134.31,52.26Q552.52,250,552,334.67q0,85.71,49.12,136.41Q649.22,522.28,736,523.34a299.87,299.87,0,0,0,43.38-3.66q24-3.66,40.24-12l-2.09-31.35q-16.2,8.87-39.2,12A276.6,276.6,0,0,1,736,492q-72.12-.53-109.75-44.42-38.16-42.87-38.15-112.89,0-69.51,38.68-112.88Q664.9,178.41,736,177.37A367.82,367.82,0,0,1,778.3,180,130,130,0,0,1,817.5,193Zm-402.22,324h36.06V183.64H559V152.27H307.62v31.37H415.28Zm-154-38.15q-13.6,7.83-36.06,9.93A308.64,308.64,0,0,1,184,492q-72.12-.53-109.75-44.42Q36.07,404.69,36.06,334.67q0-69.51,38.67-112.88Q112.88,178.41,184,177.37a377.07,377.07,0,0,1,48.6,3.12,162,162,0,0,1,44.95,16.21l4.18-33.45q-19.33-9.39-47-13.59A397.88,397.88,0,0,0,184,146q-85.71,1.05-134.31,52.26Q.52,250,0,334.67q0,85.71,49.13,136.41Q97.21,522.28,184,523.34a281.33,281.33,0,0,0,113.41-22.48V319.51H176.64v31.36h84.67Z"/><path class="cls-2" d="M1453.1,55.36c55.18-44.85,128.64-45.89,164.05-2.34s19.37,115.26-35.8,160.1-128.63,45.9-164,2.34-19.38-115.25,35.79-160.1m-4.27-5.26c71.07-57.76,159.32-66.92,197.08-20.46s10.78,131-60.29,188.74-159.32,66.92-197.08,20.46S1377.77,107.85,1448.83,50.1Z"/><path class="cls-3" d="M1612.35,228.2c106.86-88.32,261.05-81.49,344.32,15.26s64.12,246.84-42.73,335.17-261,81.49-344.31-15.28-64.13-246.83,42.72-335.15m-10-11.68c137.61-113.75,321.26-122.32,410.07-19.11s49.23,279.13-88.39,392.9-321.27,122.3-410.08,19.1S1464.68,330.27,1602.31,216.52Z"/><path class="cls-4" d="M868.52,622.26v-36h36v36Z"/><path class="cls-1" d="M975.74,545.81h13.41L1026.84,635h-13.93l-9.07-22.49H960.16L951.09,635H937.68Zm6.26,12L964.25,602h35.51Z"/><path class="cls-1" d="M1076.78,580.8a40.7,40.7,0,0,0-6.77-2.11,30.84,30.84,0,0,0-6.26-.7,18.76,18.76,0,0,0-8.88,2,19.87,19.87,0,0,0-6.58,5.5,25,25,0,0,0-4.08,7.84,29.14,29.14,0,0,0-1.41,9,32.13,32.13,0,0,0,1.21,8.69,24,24,0,0,0,3.84,7.86,19.67,19.67,0,0,0,6.76,5.68,21.22,21.22,0,0,0,9.91,2.17,25.1,25.1,0,0,0,6.58-1,23.12,23.12,0,0,0,6.32-2.74l.89,10.73a23.72,23.72,0,0,1-7.73,2.23,66.48,66.48,0,0,1-7.34.45,33.14,33.14,0,0,1-13.48-2.68,32.17,32.17,0,0,1-10.47-7.35,33.08,33.08,0,0,1-6.83-10.86,35.85,35.85,0,0,1-2.43-13.22,38.46,38.46,0,0,1,2.36-13.66,31.09,31.09,0,0,1,6.77-10.8,31.58,31.58,0,0,1,10.48-7.09,34.74,34.74,0,0,1,13.6-2.55,43.46,43.46,0,0,1,7.86.76,37.33,37.33,0,0,1,6.7,1.79Z"/><path class="cls-1" d="M1130.3,580.8a40.8,40.8,0,0,0-6.78-2.11,30.77,30.77,0,0,0-6.26-.7,18.69,18.69,0,0,0-8.87,2,19.87,19.87,0,0,0-6.58,5.5,25,25,0,0,0-4.09,7.84,29.44,29.44,0,0,0-1.41,9,32.15,32.15,0,0,0,1.22,8.69,24,24,0,0,0,3.83,7.86,19.8,19.8,0,0,0,6.77,5.68,21.21,21.21,0,0,0,9.9,2.17,25,25,0,0,0,6.58-1,23.19,23.19,0,0,0,6.33-2.74l.89,10.73a23.79,23.79,0,0,1-7.73,2.23,66.51,66.51,0,0,1-7.35.45,33.09,33.09,0,0,1-13.47-2.68,32.11,32.11,0,0,1-10.48-7.35,33.41,33.41,0,0,1-6.83-10.86,35.84,35.84,0,0,1-2.42-13.22,38.24,38.24,0,0,1,2.36-13.66,30.81,30.81,0,0,1,6.77-10.8,31.44,31.44,0,0,1,10.47-7.09,34.78,34.78,0,0,1,13.6-2.55,43.37,43.37,0,0,1,7.86.76,37.47,37.47,0,0,1,6.71,1.79Z"/><path class="cls-1" d="M1138.09,602.39a38.46,38.46,0,0,1,2.36-13.66,30.81,30.81,0,0,1,6.77-10.8,31.54,31.54,0,0,1,10.47-7.09,37.41,37.41,0,0,1,27.15,0,30.84,30.84,0,0,1,10.47,7.09,31.56,31.56,0,0,1,6.71,10.8,38.46,38.46,0,0,1,2.36,13.66,35.85,35.85,0,0,1-2.43,13.22,33.94,33.94,0,0,1-6.77,10.86,31.15,31.15,0,0,1-10.47,7.35,35.07,35.07,0,0,1-26.89,0,32.22,32.22,0,0,1-10.48-7.35,33.22,33.22,0,0,1-6.82-10.86A35.85,35.85,0,0,1,1138.09,602.39Zm12.77,0a32.13,32.13,0,0,0,1.21,8.69,25.39,25.39,0,0,0,3.71,7.86,19.28,19.28,0,0,0,6.32,5.68,18.44,18.44,0,0,0,9.2,2.17,18.2,18.2,0,0,0,9.07-2.17,19.38,19.38,0,0,0,6.32-5.68,25.37,25.37,0,0,0,3.7-7.86,32.15,32.15,0,0,0,1.22-8.69,29.75,29.75,0,0,0-1.41-9,26.77,26.77,0,0,0-4-7.84,18.83,18.83,0,0,0-6.39-5.5,19,19,0,0,0-17.18,0,19.58,19.58,0,0,0-6.38,5.5,25.75,25.75,0,0,0-4,7.84A29.43,29.43,0,0,0,1150.86,602.39Z"/><path class="cls-1" d="M1274.89,635h-11.63V624.62H1263a19,19,0,0,1-8.56,8.74,26.74,26.74,0,0,1-12.77,3.14q-12.66,0-18.53-7.42t-5.87-20.56v-38.7h12v33.72q0,11.49,2.93,17.12t10.86,6.13a18.83,18.83,0,0,0,8.88-2,17.22,17.22,0,0,0,6.2-5.49,24.64,24.64,0,0,0,3.57-8.44,47.72,47.72,0,0,0,1.15-10.92V569.82h12Z"/><path class="cls-1" d="M1292.13,569.82h11.63v10.34h.25a19.09,19.09,0,0,1,8.56-8.74,26.7,26.7,0,0,1,12.77-3.13q12.65,0,18.52,7.4t5.87,20.57V635h-12V601.24q0-11.49-2.94-17.11T1323.94,578a18.71,18.71,0,0,0-8.88,2,17.14,17.14,0,0,0-6.2,5.49,24.28,24.28,0,0,0-3.57,8.49,48.12,48.12,0,0,0-1.15,10.86V635h-12Z"/><path class="cls-1" d="M1401.6,579.52h-17.25v35.64q0,5.76,3,8.69a9.79,9.79,0,0,0,7.09,2.94,14.25,14.25,0,0,0,4.78-.71,16.22,16.22,0,0,0,3.39-1.59v10.22c-1.37.42-2.92.83-4.66,1.21a26.12,26.12,0,0,1-5.56.58q-9.33,0-14.69-4.54t-5.36-14.37V579.52h-14.69v-9.7h14.69V554.74l12-3.83v18.91h17.25Z"/></g></g></svg>